<?xml version="1.0" encoding="UTF-8" standalone="no"?>
<!-- Generator: Adobe Illustrator 25.4.1, SVG Export Plug-In . SVG Version: 6.00 Build 0)  -->

<svg
   version="1.1"
   id="Layer_1"
   x="0px"
   y="0px"
   viewBox="0 0 2000 2000"
   style="enable-background:new 0 0 2000 2000;"
   xml:space="preserve"
   sodipodi:docname="blockstream_icon_white.svg"
   inkscape:version="1.1.1 (3bf5ae0, 2021-09-20)"
   xmlns:inkscape="http://www.inkscape.org/namespaces/inkscape"
   xmlns:sodipodi="http://sodipodi.sourceforge.net/DTD/sodipodi-0.dtd"
   xmlns="http://www.w3.org/2000/svg"
   xmlns:svg="http://www.w3.org/2000/svg"><defs
   id="defs445" /><sodipodi:namedview
   id="namedview443"
   pagecolor="#ffffff"
   bordercolor="#666666"
   borderopacity="1.0"
   inkscape:pageshadow="2"
   inkscape:pageopacity="0.0"
   inkscape:pagecheckerboard="0"
   showgrid="false"
   inkscape:zoom="0.4355"
   inkscape:cx="1000"
   inkscape:cy="1368.5419"
   inkscape:window-width="2560"
   inkscape:window-height="1043"
   inkscape:window-x="1920"
   inkscape:window-y="0"
   inkscape:window-maximized="1"
   inkscape:current-layer="Layer_1" />
<style
   type="text/css"
   id="style366">
	.st0{fill:#FFFFFF;}
</style>
<g
   id="g440"
   style="fill:#ffffff"
   transform="matrix(1.4946658,0,0,1.4946658,-513.75735,-482.23161)">
	<path
   class="st0"
   d="m 1408.3,712.1 c 26,36.5 47,76.4 62.6,118.5 l 55.7,-18.1 c -17.6,-48.3 -41.9,-94 -71.8,-135.6 z"
   id="path368"
   style="fill:#ffffff" />
	<path
   class="st0"
   d="m 1027.5,448.8 c -14.8,-0.5 -29.9,-0.5 -44.7,0 l 4.1,58.2 c 22.5,-0.8 44.9,-0.3 67.2,1.8 22.2,2 44.4,5.6 66.4,10.7 l 14.8,-56.4 c -25,-5.9 -50.3,-10 -75.8,-12.3 -10.5,-1 -21.5,-1.7 -32,-2 z"
   id="path370"
   style="fill:#ffffff" />
	<path
   class="st0"
   d="m 482.3,1256.6 c -23.2,-47.5 -40.1,-97.8 -49.8,-149.7 l -61,9.7 c 10.7,58.7 29.6,115.7 56.2,169.1 z"
   id="path372"
   style="fill:#ffffff" />
	<path
   class="st0"
   d="m 450.9,669.5 54.1,30.1 c 27.1,-45.5 60,-86.8 98.3,-123.3 l -41.4,-46 c -43.4,41.1 -80.7,87.8 -111,139.2 z"
   id="path374"
   style="fill:#ffffff" />
	<path
   class="st0"
   d="m 374.2,868.4 60.8,10.7 c 10.7,-51.8 28.6,-101.9 52.9,-148.9 l -54.1,-29.9 c -27.6,53.2 -47.6,109.6 -59.6,168.1 z"
   id="path376"
   style="fill:#ffffff" />
	<path
   class="st0"
   d="m 770.3,396.7 24.3,56.7 c 49.3,-19.4 100.9,-31.9 153.5,-37 l -4.3,-61.5 c -59.6,5.6 -117.8,19.6 -173.5,41.8 z"
   id="path378"
   style="fill:#ffffff" />
	<path
   class="st0"
   d="m 588,506.5 41.4,46 c 40.4,-34.2 85,-62.8 133.1,-85.3 l -24.3,-56.7 c -54.4,24.8 -105,57.2 -150.2,96 z"
   id="path380"
   style="fill:#ffffff" />
	<path
   class="st0"
   d="m 1503.8,1415.2 -48.3,-38.6 c -34.2,40.4 -73.8,75.8 -117.5,105.7 l 33.2,52.4 c 49.6,-33.4 94.3,-73.5 132.6,-119.5 z"
   id="path382"
   style="fill:#ffffff" />
	<path
   class="st0"
   d="m 751.4,1525.3 c -47.5,-23.2 -91.7,-52.9 -131.3,-88.1 l -42.1,45.2 c 44.4,39.8 94.5,73 148.1,99.1 z"
   id="path384"
   style="fill:#ffffff" />
	<path
   class="st0"
   d="m 1652.7,1059.2 c 7.9,-83.3 -0.5,-167.3 -24.8,-247.2 l -58.7,19.4 c 33.7,113.4 32.4,234.2 -3.3,346.8 l 58.2,20.7 c 14.5,-45.2 24.2,-92.2 28.6,-139.7 z"
   id="path386"
   style="fill:#ffffff" />
	<path
   class="st0"
   d="m 1292.1,1470.4 -31.2,-49 c -38.6,23 -79.9,40.9 -123.3,52.9 l 13.8,56.7 c 49.5,-13.9 96.8,-34.1 140.7,-60.6 z"
   id="path388"
   style="fill:#ffffff" />
	<path
   class="st0"
   d="m 526.7,1060.7 c -4.3,-36.3 -4.9,-73 -1.3,-109.6 0.8,-8.9 1.8,-16.6 3.1,-24.5 L 471,916.4 c -1.3,9.7 -2.6,19.4 -3.6,29.4 -3.8,41.1 -3.3,82.7 1.8,123.9 z"
   id="path390"
   style="fill:#ffffff" />
	<path
   class="st0"
   d="m 1174.6,437.3 c 50.8,14.8 99.3,36.8 144,64.9 l 34.5,-51.6 c -50.6,-31.9 -105.2,-56.4 -162.7,-73.3 z"
   id="path392"
   style="fill:#ffffff" />
	<path
   class="st0"
   d="m 923.3,1640.4 5.9,-61.5 c -49.8,-6.6 -98.6,-19.9 -145.1,-39.1 l -25.8,56.7 c 52.6,21.7 108.3,36.5 165,43.9 z"
   id="path394"
   style="fill:#ffffff" />
	<path
   class="st0"
   d="m 620.7,1389.9 40.1,-42.4 c -31.7,-31.9 -59,-67.7 -81.2,-106.7 l -51.8,27.3 c 25.2,44.4 56.6,85.5 92.9,121.8 z"
   id="path396"
   style="fill:#ffffff" />
	<path
   class="st0"
   d="m 1382.2,470.5 -34.7,51.6 c 43.2,30.6 81.7,67.2 115.2,108.3 l 49.5,-37.8 C 1474.7,545.9 1431,505 1382.2,470.5 Z"
   id="path398"
   style="fill:#ffffff" />
	<path
   class="st0"
   d="m 1441.5,1327.3 c 30.6,-41.1 55.7,-86.1 74.3,-134.1 l -54.9,-19.7 c -16.3,41.9 -38.3,81.5 -65.1,117.5 z"
   id="path400"
   style="fill:#ffffff" />
	<path
   class="st0"
   d="m 1487.2,858.5 -55.2,18.4 c 15.3,52.9 20.4,108.3 15.3,162.9 -2.8,30.4 -8.7,60.5 -17.6,89.9 l 54.9,19.4 c 10.5,-33.7 17.6,-68.7 20.9,-103.9 6,-62.9 -0.4,-126.2 -18.3,-186.7 z"
   id="path402"
   style="fill:#ffffff" />
	<path
   class="st0"
   d="m 937.1,1492.8 5.4,-58 c -34,-5.1 -67.4,-14 -99.3,-26.8 l -24,52.9 c 37.7,15.3 77.3,26.1 117.9,31.9 z"
   id="path404"
   style="fill:#ffffff" />
	<path
   class="st0"
   d="m 1337,875.3 52.1,-17.6 c -12.5,-32.9 -29.1,-64.4 -49.5,-93.5 l -43.7,33.2 c 16.9,24.3 30.7,50.3 41.1,77.9 z"
   id="path406"
   style="fill:#ffffff" />
	<path
   class="st0"
   d="m 1021.9,593.1 h -28.6 l 3.8,54.7 c 29.4,-0.8 58.5,1.8 87.3,8.2 l 14,-52.9 c -17.4,-3.8 -34.7,-6.6 -52.4,-8.2 -7.8,-0.8 -15.9,-1.3 -24.1,-1.8 z"
   id="path408"
   style="fill:#ffffff" />
	<path
   class="st0"
   d="m 580.3,741.5 51.1,28.3 c 19.2,-31.7 42.1,-60.5 68.7,-86.3 l -39.3,-43.4 c -31.2,30.1 -58.2,64.1 -80.5,101.4 z"
   id="path410"
   style="fill:#ffffff" />
	<path
   class="st0"
   d="m 1137.8,577.3 c 35.2,10.7 69.2,26 100.6,45.2 l 32.4,-48.5 c -36.8,-22.7 -76.6,-40.4 -118,-52.9 z"
   id="path412"
   style="fill:#ffffff" />
	<path
   class="st0"
   d="m 1347.5,717.7 46.2,-35.2 c -27.3,-33.7 -59.2,-63.6 -94.2,-88.9 l -32.4,48.5 c 30.1,21.8 56.9,47 80.4,75.6 z"
   id="path414"
   style="fill:#ffffff" />
	<path
   class="st0"
   d="m 1285.2,1203.2 42.9,34.2 c 20.9,-28.6 38.1,-59.5 51.3,-92.4 l -51.6,-18.4 c -11.2,27.1 -25.5,52.9 -42.6,76.6 z"
   id="path416"
   style="fill:#ffffff" />
	<path
   class="st0"
   d="m 719.3,1332.2 -39.8,42.4 c 32.7,28.6 68.7,52.9 107.8,72 l 24,-52.9 c -33.3,-16.3 -64.2,-37.2 -92,-61.5 z"
   id="path418"
   style="fill:#ffffff" />
	<path
   class="st0"
   d="m 666.4,1038.8 c -2.6,-24.8 -2.8,-49.8 -0.5,-74.6 0.5,-4.3 1,-8.9 1.5,-13 l -53.9,-9.7 c -0.8,5.9 -1.5,11.7 -2,17.6 -2.8,29.4 -2.3,58.7 0.8,88.1 z"
   id="path420"
   style="fill:#ffffff" />
	<path
   class="st0"
   d="m 575.5,1084.2 -57.7,8.9 c 8.2,42.6 22,84.3 40.9,123.3 l 51.6,-27.3 c -16.2,-33.4 -27.7,-68.6 -34.8,-104.9 z"
   id="path422"
   style="fill:#ffffff" />
	<path
   class="st0"
   d="m 1260.2,1360.8 31.4,49 c 35.8,-24.5 68.2,-53.6 96.3,-86.3 l -45.7,-36.3 c -24.1,27.9 -51.6,52.7 -82,73.6 z"
   id="path424"
   style="fill:#ffffff" />
	<path
   class="st0"
   d="M 614.3,800.5 563.5,772.4 C 543.6,811 529,852.1 520.1,894.5 l 57.5,10.2 c 7.6,-36.3 19.8,-71.3 36.7,-104.2 z"
   id="path426"
   style="fill:#ffffff" />
	<path
   class="st0"
   d="m 1104.1,1336.8 12.8,52.9 c 34,-9.7 66.7,-23.5 97.3,-41.4 l -29.6,-46.2 c -25.3,14.5 -52.4,26.3 -80.5,34.7 z"
   id="path428"
   style="fill:#ffffff" />
	<path
   class="st0"
   d="m 704.2,1174.9 -48.5,25.3 c 17.6,30.6 39.3,58.7 64.1,84 l 37.8,-40.1 c -20.5,-21 -38.3,-44.2 -53.4,-69.2 z"
   id="path430"
   style="fill:#ffffff" />
	<path
   class="st0"
   d="m 992,1439.5 c -4.9,0 -9.7,-0.5 -14.6,-1 l -5.4,58 c 45.7,3.3 91.7,0.3 136.4,-8.9 l -13.5,-56.7 c -33.7,7 -68.4,9.8 -102.9,8.6 z"
   id="path432"
   style="fill:#ffffff" />
	<path
   class="st0"
   d="m 687.1,616.6 39.1,43.2 c 28.3,-23.8 59.5,-43.7 93,-59.5 l -23,-53.6 c -39.4,18.3 -75.9,41.8 -109.1,69.9 z"
   id="path434"
   style="fill:#ffffff" />
	<path
   class="st0"
   d="m 828.6,532.8 23,53.6 c 34.5,-13.3 70.5,-22.2 107.3,-26.3 l -4.3,-58.2 c -43.3,4.9 -85.7,15.1 -126,30.9 z"
   id="path436"
   style="fill:#ffffff" />
	<path
   class="st0"
   d="m 975.7,1644.8 c 54.9,1.8 109.8,-2.8 164,-13.3 l -12.8,-59.5 c -46.7,9.7 -94.5,13.5 -142.5,11.7 -7.7,0 -13.3,-1 -20.9,-1.5 l -5.4,62.3 c 5.9,0.3 11.7,0.3 17.6,0 z"
   id="path438"
   style="fill:#ffffff" />
</g>
</svg>
