<?xml version="1.0" encoding="UTF-8" standalone="no"?>
<!-- Generator: Adobe Illustrator 24.2.0, SVG Export Plug-In . SVG Version: 6.00 Build 0)  -->

<svg
   version="1.1"
   id="Layer_1"
   x="0px"
   y="0px"
   viewBox="0 0 2000 2000"
   style="enable-background:new 0 0 2000 2000;"
   xml:space="preserve"
   sodipodi:docname="blocksat_icon.svg"
   inkscape:version="1.1.1 (3bf5ae0, 2021-09-20)"
   xmlns:inkscape="http://www.inkscape.org/namespaces/inkscape"
   xmlns:sodipodi="http://sodipodi.sourceforge.net/DTD/sodipodi-0.dtd"
   xmlns="http://www.w3.org/2000/svg"
   xmlns:svg="http://www.w3.org/2000/svg"><defs
   id="defs153" /><sodipodi:namedview
   id="namedview151"
   pagecolor="#ffffff"
   bordercolor="#666666"
   borderopacity="1.0"
   inkscape:pageshadow="2"
   inkscape:pageopacity="0.0"
   inkscape:pagecheckerboard="0"
   showgrid="false"
   inkscape:zoom="0.417"
   inkscape:cx="998.80096"
   inkscape:cy="1000"
   inkscape:window-width="2560"
   inkscape:window-height="1043"
   inkscape:window-x="1920"
   inkscape:window-y="0"
   inkscape:window-maximized="1"
   inkscape:current-layer="Layer_1" />
<style
   type="text/css"
   id="style122">
	.st0{fill:#FFFFFF;}
	.st1{fill:#3C82F9;}
	.st2{fill:#3D75F5;}
	.st3{fill:#3E67F1;}
	.st4{fill:#3E5AEE;}
	.st5{fill:#3F4DEB;}
	.st6{fill:#4040E7;}
</style>
<g
   id="g148"
   transform="matrix(1.465224,0,0,1.465224,-466.90754,-442.74016)">
	
		<ellipse
   transform="matrix(0.4444,-0.8958,0.8958,0.4444,-905.4115,1626.8313)"
   class="st0"
   cx="858.79999"
   cy="1543.4"
   rx="103.3"
   ry="78.599998"
   id="ellipse124" />
	
		<ellipse
   transform="matrix(0.4444,-0.8958,0.8958,0.4444,-623.2669,1847.5006)"
   class="st1"
   cx="1177.8"
   cy="1426.2"
   rx="100.6"
   ry="83.900002"
   id="ellipse126" />
	
		<ellipse
   transform="matrix(0.4444,-0.8958,0.8958,0.4444,-253.6375,1929.8973)"
   class="st2"
   cx="1429.1"
   cy="1169.4"
   rx="100.6"
   ry="87.400002"
   id="ellipse128" />
	
		<ellipse
   transform="matrix(0.6356,-0.7721,0.7721,0.6356,-92.1718,1495.0981)"
   class="st3"
   cx="1537.6"
   cy="845.20001"
   rx="89.800003"
   ry="74.5"
   id="ellipse130" />
	
		<ellipse
   transform="matrix(0.4444,-0.8958,0.8958,0.4444,-983.0983,1339.2999)"
   class="st1"
   cx="588.20001"
   cy="1462.2"
   rx="90.599998"
   ry="69.699997"
   id="ellipse132" />
	
		<ellipse
   transform="matrix(0.7808,-0.6248,0.6248,0.7808,-26.7975,1039.7106)"
   class="st4"
   cx="1468.3"
   cy="558"
   rx="84.199997"
   ry="64.199997"
   id="ellipse134" />
	<ellipse
   transform="matrix(0.5,-0.866,0.866,0.5,-850.2692,1010.1711)"
   class="st2"
   cx="449.70001"
   cy="1241.5"
   rx="84.699997"
   ry="61.799999"
   id="ellipse136" />
	
		<ellipse
   transform="matrix(0.5717,-0.8204,0.8204,0.5717,-577.4355,801.9318)"
   class="st3"
   cx="479.39999"
   cy="954.09998"
   rx="75"
   ry="51.799999"
   id="ellipse138" />
	
		<ellipse
   transform="matrix(0.5717,-0.8204,0.8204,0.5717,-333.694,800.356)"
   class="st4"
   cx="599.79999"
   cy="719.79999"
   rx="65"
   ry="48.599998"
   id="ellipse140" />
	
		<ellipse
   transform="matrix(0.7808,-0.6248,0.6248,0.7808,-155.4034,616.6352)"
   class="st5"
   cx="801.09998"
   cy="529.79999"
   rx="61.200001"
   ry="46.799999"
   id="ellipse142" />
	
		<ellipse
   transform="matrix(0.7808,-0.6248,0.6248,0.7808,-36.2582,736.6729)"
   class="st6"
   cx="1031.7"
   cy="420"
   rx="64.199997"
   ry="47.099998"
   id="ellipse144" />
	
		<ellipse
   transform="matrix(0.845,-0.5347,0.5347,0.845,-26.0754,750.3557)"
   class="st5"
   cx="1281.5"
   cy="420.20001"
   rx="77.099998"
   ry="55.599998"
   id="ellipse146" />
</g>
</svg>
