<?xml version="1.0" encoding="UTF-8" standalone="no"?>
<!-- Generator: Adobe Illustrator 19.0.0, SVG Export Plug-In . SVG Version: 6.00 Build 0)  -->

<svg
   version="1.1"
   id="Capa_1"
   x="0px"
   y="0px"
   viewBox="0 0 489.4 489.4"
   style="enable-background:new 0 0 489.4 489.4;"
   xml:space="preserve"
   sodipodi:docname="doc.svg"
   inkscape:version="1.1.1 (3bf5ae0, 2021-09-20)"
   xmlns:inkscape="http://www.inkscape.org/namespaces/inkscape"
   xmlns:sodipodi="http://sodipodi.sourceforge.net/DTD/sodipodi-0.dtd"
   xmlns="http://www.w3.org/2000/svg"
   xmlns:svg="http://www.w3.org/2000/svg"><defs
   id="defs3207" /><sodipodi:namedview
   id="namedview3205"
   pagecolor="#ffffff"
   bordercolor="#666666"
   borderopacity="1.0"
   inkscape:pageshadow="2"
   inkscape:pageopacity="0.0"
   inkscape:pagecheckerboard="0"
   showgrid="false"
   inkscape:zoom="1.7797303"
   inkscape:cx="244.7"
   inkscape:cy="244.98094"
   inkscape:window-width="2560"
   inkscape:window-height="1043"
   inkscape:window-x="1920"
   inkscape:window-y="0"
   inkscape:window-maximized="1"
   inkscape:current-layer="Capa_1" />
<g
   id="g3172"
   style="fill:#ffffff">
	<g
   id="g3170"
   style="fill:#ffffff">
		<path
   d="M 453.7,20.4 C 453.7,9.2 444.5,0 433.3,0 H 114.2 C 70.4,0 35.7,34.7 35.7,77.5 c 0,0 0,349.5 0,349.7 0,34.7 28.5,62.2 63.2,62.2 h 333.4 c 8.2,0 16.3,-5.1 19.4,-13.3 3.1,-8.2 1,-17.3 -6.1,-22.4 -18.1,-11.5 -19.2,-36.7 -3.1,-47.9 3.4,-3.4 11.1,-10.4 10.5,-20.4 0.5,-1.6 0.7,-365 0.7,-365 z M 76.5,427.2 c 0,-12.2 10.2,-21.4 22.4,-21.4 h 293.7 c -9,15 -7.1,32.6 0,42.8 H 98.9 c -12.2,0 -22.4,-9.1 -22.4,-21.4 z M 413,365 H 99 c -7.9,0 -15.4,1.5 -22.4,4.2 V 77.5 c 0,-20.4 17.3,-36.7 37.7,-36.7 H 413.1 V 365 Z"
   id="path3168"
   style="fill:#ffffff" />
	</g>
</g>
<g
   id="g3174">
</g>
<g
   id="g3176">
</g>
<g
   id="g3178">
</g>
<g
   id="g3180">
</g>
<g
   id="g3182">
</g>
<g
   id="g3184">
</g>
<g
   id="g3186">
</g>
<g
   id="g3188">
</g>
<g
   id="g3190">
</g>
<g
   id="g3192">
</g>
<g
   id="g3194">
</g>
<g
   id="g3196">
</g>
<g
   id="g3198">
</g>
<g
   id="g3200">
</g>
<g
   id="g3202">
</g>
</svg>
