<?xml version="1.0" encoding="UTF-8" standalone="no"?>
<!-- Generator: Adobe Illustrator 19.0.0, SVG Export Plug-In . SVG Version: 6.00 Build 0)  -->

<svg
   version="1.1"
   id="Layer_1"
   x="0px"
   y="0px"
   viewBox="0 0 291.32 291.32"
   style="enable-background:new 0 0 291.32 291.32;"
   xml:space="preserve"
   xmlns="http://www.w3.org/2000/svg"
   xmlns:svg="http://www.w3.org/2000/svg"><defs
   id="defs687" />
<g
   id="g652"
   style="fill:#ffffff">
	<path
   style="fill:#ffffff"
   d="M 145.66,0 C 65.219,0 0,65.219 0,145.66 c 0,80.45 65.219,145.66 145.66,145.66 80.441,0 145.66,-65.21 145.66,-145.66 C 291.319,65.219 226.1,0 145.66,0 Z m 40.802,256.625 c -0.838,-11.398 -1.775,-25.518 -1.83,-31.235 -0.364,-4.388 -0.838,-15.549 -11.434,-22.677 42.068,-3.523 62.087,-26.774 63.526,-57.499 1.202,-17.497 -5.754,-32.883 -18.107,-45.3 0.628,-13.282 -0.401,-29.023 -1.256,-35.941 -9.486,-2.731 -31.608,8.949 -37.79,13.947 -13.037,-5.062 -44.945,-6.837 -64.336,0 C 101.488,68.252 85.839,62.28 77.309,63.946 69.434,81.398 74.496,97.894 76.034,99.86 c -10.142,9.268 -24.289,20.675 -20.447,44.572 6.163,35.04 30.816,53.94 70.508,58.564 -8.466,1.73 -9.896,8.048 -10.606,10.788 -26.656,10.997 -34.275,-6.791 -37.644,-11.425 -11.188,-13.847 -21.23,-9.832 -21.849,-9.614 -0.601,0.218 -1.056,1.092 -0.992,1.511 0.564,2.986 6.655,6.018 6.955,6.263 8.257,6.154 11.316,17.27 13.2,20.438 11.844,19.473 39.374,11.398 39.638,11.562 0.018,1.702 -0.191,16.032 -0.355,27.184 C 64.245,245.992 27.311,200.2 27.311,145.66 c 0,-65.365 52.984,-118.348 118.348,-118.348 65.364,0 118.349,52.983 118.349,118.348 0,51.008 -32.318,94.332 -77.546,110.965 z"
   id="path650" />
</g>
<g
   id="g654">
</g>
<g
   id="g656">
</g>
<g
   id="g658">
</g>
<g
   id="g660">
</g>
<g
   id="g662">
</g>
<g
   id="g664">
</g>
<g
   id="g666">
</g>
<g
   id="g668">
</g>
<g
   id="g670">
</g>
<g
   id="g672">
</g>
<g
   id="g674">
</g>
<g
   id="g676">
</g>
<g
   id="g678">
</g>
<g
   id="g680">
</g>
<g
   id="g682">
</g>
</svg>
