<?xml version="1.0" encoding="UTF-8" standalone="no"?>
<!-- Generator: Adobe Illustrator 19.0.0, SVG Export Plug-In . SVG Version: 6.00 Build 0)  -->

<svg
   version="1.1"
   id="Capa_1"
   x="0px"
   y="0px"
   viewBox="0 0 490.2 490.2"
   style="enable-background:new 0 0 490.2 490.2;"
   xml:space="preserve"
   sodipodi:docname="instructions.svg"
   inkscape:version="1.1.1 (3bf5ae0, 2021-09-20)"
   xmlns:inkscape="http://www.inkscape.org/namespaces/inkscape"
   xmlns:sodipodi="http://sodipodi.sourceforge.net/DTD/sodipodi-0.dtd"
   xmlns="http://www.w3.org/2000/svg"
   xmlns:svg="http://www.w3.org/2000/svg"><defs
   id="defs3006" /><sodipodi:namedview
   id="namedview3004"
   pagecolor="#ffffff"
   bordercolor="#666666"
   borderopacity="1.0"
   inkscape:pageshadow="2"
   inkscape:pageopacity="0.0"
   inkscape:pagecheckerboard="0"
   showgrid="false"
   inkscape:zoom="1.7768257"
   inkscape:cx="245.10001"
   inkscape:cy="244.81861"
   inkscape:window-width="2560"
   inkscape:window-height="1043"
   inkscape:window-x="1920"
   inkscape:window-y="0"
   inkscape:window-maximized="1"
   inkscape:current-layer="Capa_1" />
<g
   id="g2971"
   style="fill:#ffffff">
	<g
   id="g2969"
   style="fill:#ffffff">
		<g
   id="g2967"
   style="fill:#ffffff">
			<path
   d="m 469.1,173.1 h -37.5 c -1,-3.1 -3.1,-6.3 -4.2,-9.4 l 26.1,-26.1 c 8.3,-8.3 8.3,-20.9 0,-29.2 L 381.6,36.5 c -8.3,-8.3 -20.9,-8.3 -29.2,0 l -26.1,26.1 c -3.1,-2.1 -6.3,-3.1 -9.4,-4.2 V 20.9 C 316.9,9.4 307.5,0 296,0 H 193.9 C 182.4,0 173,9.4 173,20.9 v 37.5 c -3.1,1 -6.3,3.1 -9.4,4.2 L 137.5,36.5 c -8.3,-8.3 -20.9,-8.3 -29.2,0 l -71.9,71.9 c -4.2,4.2 -6.3,9.4 -6.3,14.6 0,5.2 2.1,10.4 6.3,14.6 l 26.1,26.1 c -2.1,3.1 -3.1,6.3 -4.2,9.4 H 20.9 C 9.4,173.1 0,182.5 0,194 v 102.2 c 0,11.5 9.4,20.9 20.9,20.9 h 37.5 c 1,3.1 3.1,6.3 4.2,9.4 l -26.1,26.1 c -4.2,4.2 -6.3,9.4 -6.3,14.6 0,5.2 2.1,10.4 6.3,14.6 l 71.9,71.9 c 8.3,8.3 20.9,8.3 29.2,0 l 26.1,-26.1 c 3.1,2.1 6.3,3.1 9.4,4.2 v 37.5 c 0,11.5 9.4,20.9 20.9,20.9 h 102.2 c 11.5,0 20.9,-9.4 20.9,-20.9 v -37.5 c 3.1,-1 6.3,-3.1 9.4,-4.2 l 26.1,26.1 c 8.3,8.3 20.9,8.3 29.2,0 l 71.9,-71.9 c 8.3,-8.3 8.3,-20.9 0,-29.2 l -26.1,-26.1 c 2.1,-3.1 3.1,-6.3 4.2,-9.4 h 37.5 c 11.5,0 20.9,-9.4 20.9,-20.9 V 193.9 C 490,182.4 480.6,173.1 469.1,173.1 Z M 448.3,275.2 H 417 c -9.4,0 -16.7,6.3 -19.8,14.6 -3.1,10.4 -7.3,20.9 -12.5,30.2 -5.2,8.3 -3.1,18.8 3.1,25 l 21.9,21.9 -42.7,42.8 -21.9,-21.9 c -7.3,-6.3 -16.7,-7.3 -25,-3.1 -9.4,5.2 -19.8,9.4 -30.2,12.5 -8.3,2.1 -14.6,10.4 -14.6,19.8 v 31.3 h -60.5 v 0 -31.3 c 0,-9.4 -6.3,-16.7 -14.6,-19.8 -10.4,-3.1 -20.9,-7.3 -30.2,-12.5 -8.3,-5.2 -18.8,-3.1 -25,3.1 L 123,409.7 80.3,367 102.2,345.1 c 6.3,-7.3 7.3,-16.7 3.1,-25 -5.2,-9.4 -9.4,-19.8 -12.5,-30.2 C 90.7,281.6 82.4,275.3 73,275.3 H 41.7 V 214.8 H 73 c 9.4,0 16.7,-6.3 19.8,-14.6 3.1,-10.4 7.3,-20.9 12.5,-30.2 5.2,-8.3 3.1,-18.8 -3.1,-25 L 80.3,123 123,80.3 l 21.9,21.9 c 7.3,6.3 16.7,7.3 25,3.1 9.4,-5.2 19.8,-9.4 30.2,-12.5 8.3,-2.1 14.6,-10.4 14.6,-19.8 V 41.7 h 60.5 V 73 c 0,9.4 6.3,16.7 14.6,19.8 10.4,3.1 20.9,7.3 30.2,12.5 8.3,5.2 18.8,3.1 25,-3.1 l 22,-21.9 42.7,42.7 -21.9,21.9 c -6.3,7.3 -7.3,16.7 -3.1,25 5.2,9.4 9.4,19.8 12.5,30.2 2.1,8.3 10.4,14.6 19.8,14.6 h 31.3 z"
   id="path2963"
   style="fill:#ffffff" />
			<path
   d="m 245,131.4 c -62.6,0 -113.6,51.1 -113.6,113.6 0,62.5 51,113.6 113.6,113.6 62.6,0 113.6,-51 113.6,-113.6 0,-62.6 -51,-113.6 -113.6,-113.6 z m 0,185.5 c -39.6,0 -71.9,-32.3 -71.9,-71.9 0,-39.6 32.3,-71.9 71.9,-71.9 39.6,0 71.9,32.3 71.9,71.9 0,39.6 -32.3,71.9 -71.9,71.9 z"
   id="path2965"
   style="fill:#ffffff" />
		</g>
	</g>
</g>
<g
   id="g2973">
</g>
<g
   id="g2975">
</g>
<g
   id="g2977">
</g>
<g
   id="g2979">
</g>
<g
   id="g2981">
</g>
<g
   id="g2983">
</g>
<g
   id="g2985">
</g>
<g
   id="g2987">
</g>
<g
   id="g2989">
</g>
<g
   id="g2991">
</g>
<g
   id="g2993">
</g>
<g
   id="g2995">
</g>
<g
   id="g2997">
</g>
<g
   id="g2999">
</g>
<g
   id="g3001">
</g>
</svg>
