<?xml version="1.0" encoding="UTF-8" standalone="no"?>
<!-- Uploaded to: SVG Repo, www.svgrepo.com, Generator: SVG Repo Mixer Tools -->

<svg
   width="800px"
   height="800px"
   viewBox="0 0 24 24"
   fill="none"
   version="1.1"
   id="svg1"
   sodipodi:docname="message-square-list-svgrepo-com.svg"
   inkscape:version="1.3 (0e150ed6c4, 2023-07-21)"
   xmlns:inkscape="http://www.inkscape.org/namespaces/inkscape"
   xmlns:sodipodi="http://sodipodi.sourceforge.net/DTD/sodipodi-0.dtd"
   xmlns="http://www.w3.org/2000/svg"
   xmlns:svg="http://www.w3.org/2000/svg">
  <defs
     id="defs1" />
  <sodipodi:namedview
     id="namedview1"
     pagecolor="#ffffff"
     bordercolor="#000000"
     borderopacity="0.25"
     inkscape:showpageshadow="2"
     inkscape:pageopacity="0.0"
     inkscape:pagecheckerboard="0"
     inkscape:deskcolor="#d1d1d1"
     inkscape:zoom="2.0594485"
     inkscape:cx="536.7942"
     inkscape:cy="347.42311"
     inkscape:window-width="2560"
     inkscape:window-height="1371"
     inkscape:window-x="0"
     inkscape:window-y="0"
     inkscape:window-maximized="1"
     inkscape:current-layer="svg1" />
  <path
     d="M10 9H17M10 13H17M7 9H7.01M7 13H7.01M21 20L17.6757 18.3378C17.4237 18.2118 17.2977 18.1488 17.1656 18.1044C17.0484 18.065 16.9277 18.0365 16.8052 18.0193C16.6672 18 16.5263 18 16.2446 18H6.2C5.07989 18 4.51984 18 4.09202 17.782C3.71569 17.5903 3.40973 17.2843 3.21799 16.908C3 16.4802 3 15.9201 3 14.8V7.2C3 6.07989 3 5.51984 3.21799 5.09202C3.40973 4.71569 3.71569 4.40973 4.09202 4.21799C4.51984 4 5.0799 4 6.2 4H17.8C18.9201 4 19.4802 4 19.908 4.21799C20.2843 4.40973 20.5903 4.71569 20.782 5.09202C21 5.51984 21 6.0799 21 7.2V20Z"
     stroke="#000000"
     stroke-width="2"
     stroke-linecap="round"
     stroke-linejoin="round"
     id="path1"
     style="stroke:#358de5;stroke-opacity:1" />
  <path
     style="fill:#358de5;fill-opacity:1;stroke-width:0.485567"
     d="m 695.5919,699.42264 c -1.5928,-0.24211 -3.99636,-0.80163 -5.34123,-1.24339 -1.34483,-0.44172 -28.99354,-14.06819 -61.44155,-30.28102 -60.0773,-30.01789 -65.31613,-32.56965 -69.64661,-33.92365 -2.22112,-0.69446 -21.56178,-0.79788 -199.11466,-1.0649 -146.25342,-0.21991 -197.89907,-0.4424 -201.51026,-0.86799 C 136.307,629.42157 123.49413,624.83092 108.18024,613.99933 102.96646,610.3116 93.478419,601.33327 89.234981,596.07186 76.822685,580.68192 70.830441,565.56046 68.149985,542.86378 67.34653,536.06056 67.278493,524.91813 67.118188,373.8865 66.943655,209.45032 67.030716,199.37676 68.739809,186.254 c 3.071743,-23.58546 18.96511,-31.43767 35.554051,-47.36013 15.98015,-15.33813 26.38334,-34.01536 49.14528,-36.90386 13.39343,-1.69962 25.27831,-1.77376 254.92261,-1.59028 243.68636,0.19471 230.43694,0.0592 244.50235,2.50119 26.01449,4.5166 48.3663,19.32328 63.46374,42.0408 11.29808,17.0005 15.22587,31.7852 16.38288,61.66699 0.29736,7.68001 0.476,97.75461 0.47042,237.19943 -0.01,245.31616 0.19175,228.52875 -2.83129,235.7552 -5.62049,13.43549 -20.62363,22.00764 -34.75795,19.8593 z M 666.19986,201.23638 c -0.99216,-14.01151 -2.49358,-18.05366 -9.19227,-24.74766 -6.53684,-6.53225 -10.27459,-8.0705 -22.61445,-9.30684 -9.16129,-0.91787 -458.53186,-0.93352 -468.40882,-0.0163 -12.16965,1.13012 -16.70508,2.92863 -22.94374,9.09829 -5.89382,5.82863 -7.72672,10.02765 -9.11261,20.8763 -0.75666,5.92307 -1.1623,311.90427 -0.43547,328.486 0.6146,14.02167 1.39088,18.91663 3.77315,23.7924 3.57114,7.30904 12.21288,14.17651 19.57245,15.55397 8.45915,1.58326 10.76169,1.60457 207.82263,1.92237 216.754,0.34958 198.86276,0.0789 210.93667,3.1912 9.1776,2.3657 14.79712,4.90273 52.72615,23.80416 l 38.117,18.99508 0.14723,-202.04578 C 666.69247,267.1764 666.5804,206.61 666.19986,201.23638 Z"
     id="path6"
     transform="scale(0.03)"
     sodipodi:nodetypes="ssssscssssssssssscsssssssssssssscss" />
  <path
     style="fill:#358de5;fill-opacity:1;stroke-width:0.485567"
     d="m 326.30095,465.63387 c -1.7359,-0.37176 -5.22724,-1.69969 -7.75852,-2.95095 -8.46161,-4.18276 -14.96099,-12.26439 -17.32718,-21.5454 -1.05022,-4.11935 -1.04842,-11.43037 0.004,-15.53814 2.78955,-10.88991 11.27997,-20.08181 21.86231,-23.66859 l 3.94791,-1.33811 121.6345,-0.13441 c 135.6581,-0.14992 124.90268,-0.41555 132.38797,3.26966 7.15131,3.52078 12.0244,8.48111 15.53764,15.81579 4.08425,8.52678 4.0981,18.78578 0.0371,27.49984 -4.39155,9.42343 -12.14118,15.77974 -22.39998,18.37267 -3.79128,0.95824 -5.39459,0.97027 -124.30513,0.93216 -100.9835,-0.0324 -120.97471,-0.1479 -123.62049,-0.71452 z"
     id="path7"
     transform="scale(0.03)" />
  <path
     id="path8"
     style="fill:#358de5;fill-opacity:1;stroke-width:0.485567"
     d="M 327.51562 267.0625 L 323.63086 268.38477 C 321.49437 269.11234 318.32944 270.5327 316.59766 271.54102 C 312.75197 273.78009 307.20073 279.24694 305.02344 282.93945 C 301.38777 289.10527 299.61361 297.33273 300.51758 303.83203 C 302.66967 319.30495 314.72911 331.22906 329.86523 332.84961 C 331.77746 333.05435 386.87467 333.18763 452.30469 333.14453 C 564.1674 333.07091 571.45711 333.01394 574.41797 332.21094 C 595.44872 326.50732 605.58785 304.14681 595.92188 284.78516 C 592.17291 277.27571 583.60148 270.40801 574.91211 267.95312 C 571.88766 267.09867 566.65751 267.0625 449.63477 267.0625 L 327.51562 267.0625 z M 233.50586 267.10352 C 230.44074 267.10239 227.38409 267.382 225.30273 267.94336 C 210.47305 271.94307 200.46104 284.76782 200.40234 299.83789 C 200.3804 305.46893 201.31055 309.34767 204.01367 314.89062 C 206.86163 320.73059 212.66596 326.53298 218.50586 329.38086 C 220.77589 330.48786 223.83391 331.70935 225.30273 332.09375 C 226.77157 332.47815 230.28705 332.80662 233.11523 332.82422 C 243.02033 332.88577 249.91843 330.07699 256.88672 323.14453 C 260.20646 319.84186 261.43941 318.19329 263.06055 314.89062 C 265.60402 309.70891 266.55936 305.66293 266.56836 300.03711 C 266.59289 284.94765 256.4841 271.87298 241.75781 267.94922 C 239.64504 267.38638 236.57098 267.10465 233.50586 267.10352 z M 234.11328 400.43359 C 233.38675 400.42304 232.657 400.43617 231.92383 400.47266 C 222.79375 400.92706 215.07764 404.52985 208.98828 411.17969 C 200.85383 420.06286 198.30678 431.79607 201.96094 443.56445 C 204.41418 451.46528 210.84663 458.89176 218.52539 462.6875 C 221.05093 463.93593 224.53754 465.26301 226.27344 465.63477 C 240.96373 468.7808 256.31586 461.5647 262.94727 448.39648 C 265.8197 442.69258 266.72649 438.44047 266.45703 431.93555 C 266.17681 425.17072 264.67341 420.45596 261.07227 415.03906 C 255.05658 405.99016 245.01129 400.59187 234.11328 400.43359 z "
     transform="scale(0.03)" />
</svg>
