<?xml version="1.0" encoding="utf-8"?>
<!-- Generator: Adobe Illustrator 24.1.2, SVG Export Plug-In . SVG Version: 6.00 Build 0)  -->
<svg version="1.1" id="Layer_1" xmlns="http://www.w3.org/2000/svg" xmlns:xlink="http://www.w3.org/1999/xlink" x="0px" y="0px"
	 viewBox="0 0 2007.5 1008.5" style="enable-background:new 0 0 2007.5 1008.5;" xml:space="preserve">
<style type="text/css">
	.st0{fill:#FFFFFF;}
	.st1{fill:#3C82F9;}
	.st2{fill:#3D75F5;}
	.st3{fill:#3E67F1;}
	.st4{fill:#3E5AEE;}
	.st5{fill:#3F4DEB;}
	.st6{fill:#4040E7;}
</style>
<g>
	<g>
		
			<ellipse transform="matrix(0.4444 -0.8958 0.8958 0.4444 -420.1372 700.3254)" class="st0" cx="354.5" cy="688.9" rx="35.1" ry="26.7"/>
		
			<ellipse transform="matrix(0.4444 -0.8958 0.8958 0.4444 -324.26 775.3135)" class="st1" cx="462.9" cy="649.1" rx="34.2" ry="28.5"/>
		
			<ellipse transform="matrix(0.4444 -0.8958 0.8958 0.4444 -198.7182 803.2999)" class="st2" cx="548.3" cy="561.9" rx="34.2" ry="29.7"/>
		
			<ellipse transform="matrix(0.6356 -0.7721 0.7721 0.6356 -135.4734 616.3065)" class="st3" cx="585.1" cy="451.7" rx="30.5" ry="25.3"/>
		
			<ellipse transform="matrix(0.4444 -0.8958 0.8958 0.4444 -446.5477 602.6945)" class="st1" cx="262.6" cy="661.3" rx="30.8" ry="23.7"/>
		
			<ellipse transform="matrix(0.7808 -0.6248 0.6248 0.7808 -98.1048 428.4802)" class="st4" cx="561.6" cy="354.1" rx="28.6" ry="21.8"/>
		<ellipse transform="matrix(0.5 -0.866 0.866 0.5 -399.9986 479.7894)" class="st2" cx="215.5" cy="586.3" rx="28.8" ry="21"/>
		
			<ellipse transform="matrix(0.5717 -0.8204 0.8204 0.5717 -304.3233 394.3463)" class="st3" cx="225.6" cy="488.7" rx="25.5" ry="17.6"/>
		
			<ellipse transform="matrix(0.5717 -0.8204 0.8204 0.5717 -221.4995 393.8003)" class="st4" cx="266.5" cy="409.1" rx="22.1" ry="16.5"/>
		
			<ellipse transform="matrix(0.7808 -0.6248 0.6248 0.7808 -141.8446 284.7299)" class="st5" cx="334.9" cy="344.5" rx="20.8" ry="15.9"/>
		
			<ellipse transform="matrix(0.7808 -0.6248 0.6248 0.7808 -101.3761 325.5329)" class="st6" cx="413.3" cy="307.2" rx="21.8" ry="16"/>
		
			<ellipse transform="matrix(0.845 -0.5347 0.5347 0.845 -87.0842 314.0213)" class="st5" cx="498.2" cy="307.2" rx="26.2" ry="18.9"/>
	</g>
	<g>
		<path class="st0" d="M763.3,420.5c0,19.3-15.4,25.2-36.7,25.2h-26.2v-87.6h22.9c22.5,0,36.3,6.3,36.3,22.3
			c0,10.9-7.9,17.1-16.2,18.9C753.3,401.2,763.3,406,763.3,420.5z M717.1,394.2h10.3c9.1,0,15.1-4,15.1-12.3
			c0-8.9-6.1-11.4-17.5-11.4h-7.9V394.2z M745.8,419.9c0-10.5-7.5-14.1-17.2-14.1h-11.5v27.4h9.7
			C737.9,433.2,745.9,430.9,745.8,419.9L745.8,419.9z"/>
		<path class="st0" d="M796.8,434.5c1.3,0,2.6-0.2,3.8-0.6l3.4,11.4c-3.7,1.5-7.6,2.3-11.5,2.3c-10,0-15.8-6-15.8-17.1v-78.7
			l16.2-1.8v79.4C793,433,794.1,434.5,796.8,434.5z"/>
		<path class="st0" d="M874.4,412.1c0,21.1-11.8,35.5-31.6,35.5c-19.9,0-31.6-13.4-31.6-35.5c0-21.1,11.8-35.4,31.6-35.4
			C862.6,376.8,874.4,390.2,874.4,412.1z M828.4,412.1c0,16.1,5,23.1,14.4,23.1s14.4-7.3,14.4-23.1c0-15.9-5-23.1-14.4-23.1
			s-14.7,7.3-14.7,23.1H828.4z"/>
		<path class="st0" d="M935.9,384.6l-7.3,9.9c-3.7-3.2-8.5-5-13.4-5c-9.4,0-15.1,6.9-15.1,22.9s6,21.9,15.1,21.9
			c4.9-0.1,9.6-2,13.3-5.3l7.5,10.5c-6.1,5-13.8,7.8-21.7,7.7c-19.4,0-31.4-13.4-31.4-34.8c0-21.4,12.1-35.8,31.3-35.8
			C922.2,376.5,930,379.3,935.9,384.6z"/>
		<path class="st0" d="M947.1,445.7v-93.9l16.2-1.8v95.7H947.1z M1005.7,445.7H987L963.9,409l22.5-30.4h17l-22.3,29.6L1005.7,445.7z
			"/>
		<path class="st0" d="M1062.8,384.7l-6.3,9.8c-4.8-3.5-10.5-5.6-16.5-5.7c-6.9,0-10.5,2.7-10.5,6.7c0,4,2.6,6.5,14.1,9.6
			c13.7,3.7,21.4,9.2,21.4,21.1c0,13.9-12.9,21.3-28.3,21.3c-9.8,0.3-19.3-3.1-26.7-9.5l8.3-9.2c5,4.2,11.4,6.6,18,6.7
			c7.3,0,12.1-3.1,12.1-7.9c0-5.9-2.6-7.6-15.2-11.2c-13.8-3.8-19.9-10.4-19.9-20.2c0-11.2,10.2-19.5,25.9-19.5
			C1047.6,376.5,1056,379.4,1062.8,384.7z"/>
		<path class="st0" d="M1101.9,447.6c-13.1-0.2-20.2-7.6-20.2-21.9v-35.5h-10.5v-11.5h10.5v-14.8l16.2-1.9v16.7h15.6l-1.6,11.5h-14
			v35c0,6.6,2.1,9.2,7.1,9.2c2.8-0.2,5.6-1,7.9-2.7l5.7,10.5C1113.7,445.8,1107.8,447.6,1101.9,447.6z"/>
		<path class="st0" d="M1168.3,377.8l-2.8,15.8c-1.9-0.5-4-0.8-6-0.8c-8.1,0-12.3,6-14.8,17.2v35.8h-16.2v-67.1h14.1l1.5,13.1
			c3.1-9.6,9.6-15,17.5-15C1163.8,376.8,1166.1,377.2,1168.3,377.8z"/>
		<path class="st0" d="M1232.4,417.2h-42c1.1,13.7,7.6,18.1,16.5,18.1c6.1-0.1,11.9-2.2,16.7-6l6.7,9.2c-7,5.8-15.7,9-24.9,9
			c-20.8,0-31.9-13.8-31.9-35c0-20.4,10.8-35.8,29.8-35.8s29.6,12.7,29.6,33.8C1232.8,412.8,1232.6,415.4,1232.4,417.2z M1216.8,406
			c0-11-3.9-17.6-13.1-17.6c-7.6,0-12.4,5-13.1,18.4h26.4L1216.8,406L1216.8,406z"/>
		<path class="st0" d="M1302.1,436.6l-3.4,10.8c-7.3-0.6-12.1-3.3-14.8-9.8c-4.5,6.6-12.1,10.4-20,10c-13.4,0-21.7-8.5-21.7-20.6
			c0-14.6,11-22.5,30.6-22.5h8.4v-3.7c0-8.8-4-11.7-12.5-11.7c-6,0.3-12.1,1.5-17.7,3.6l-3.8-11.1c7.8-3.1,16-4.7,24.4-4.8
			c17.9,0,25.7,8.3,25.7,23.1V428C1297.1,433.4,1298.8,435.3,1302.1,436.6z M1281,427.6v-13.7h-6.7c-10.5,0-15.8,3.8-15.8,11.7
			c0,6.5,3.3,10.2,9.5,10.2C1273.6,435.8,1278.7,432.6,1281,427.6L1281,427.6z"/>
		<path class="st0" d="M1404.4,397.2v48.5h-16.3v-46c0-8.3-3.3-10.8-7.3-10.8c-5.6,0-9,3.9-12.7,10.2v46.7h-16.3v-46
			c0-8.3-3.4-10.8-7.3-10.8c-5.7,0-9.2,3.9-12.8,10.2v46.7h-16.2v-67.1h14.1l1.3,8.8c4.2-6.6,11.5-10.6,19.4-10.5
			c7.3-0.3,14,4.3,16.2,11.3c5.1-7,11.3-11.3,20.2-11.3C1397.2,376.8,1404.4,384.5,1404.4,397.2z"/>
	</g>
	<g>
		<path class="st1" d="M783.4,595.9c-6.3-5.9-14.7-9.3-27.4-11l-17.5-2.5c-5.9-0.8-11.2-3.1-14.6-6.2c-3.2-3-4.9-7.1-4.9-11.8
			c0-9.4,6.4-20.4,24.5-20.4c9.7,0,20.8,1.2,30.3,9.6l16-15.8c-11.9-11-25.6-15.7-45.5-15.7c-30.3,0-49.9,17-49.9,43.3
			c0,12,3.3,21.1,10.1,28c6.3,6.1,15.4,10,27.8,11.8l17.9,2.5c6.9,1.1,10.7,2.6,14,5.6c3.3,3.1,5.1,7.8,5.1,13.7
			c0,12.9-9.9,19.9-27.8,19.9c-15.4,0-27.1-3.9-35.7-11.8l-16.4,16.4c12.9,12.5,28.5,17.9,51.7,17.9c32.4,0,53.3-17,53.3-43.3
			C794.3,613,790.7,602.8,783.4,595.9z"/>
		<path class="st1" d="M913.6,642l8.7,26.2H949l-52.9-144.8h-20.4l-52.7,144.8h26.6l8.9-26.2H913.6z M886.7,560.3l20.4,60.6h-41.4
			L886.7,560.3z"/>
		<polygon class="st1" points="1064.5,523.4 961.5,523.4 961.5,545.9 1000.2,545.9 1000.2,668.2 1025.8,668.2 1025.8,545.9 
			1064.5,545.9 		"/>
		<polygon class="st1" points="1199.3,545.9 1199.3,523.4 1105,523.4 1105,668.2 1199.3,668.2 1199.3,645.7 1130.7,645.7 
			1130.7,606.4 1189.1,606.4 1189.1,583.9 1130.7,583.9 1130.7,545.9 		"/>
		<polygon class="st1" points="1244.6,523.4 1244.6,668.2 1337.4,668.2 1337.4,645.7 1270.2,645.7 1270.2,523.4 		"/>
		<polygon class="st1" points="1377.9,523.4 1377.9,668.2 1470.7,668.2 1470.7,645.7 1403.6,645.7 1403.6,523.4 		"/>
		<rect x="1511.3" y="523.4" class="st1" width="25.6" height="144.8"/>
		<polygon class="st1" points="1680.4,523.4 1577.4,523.4 1577.4,545.9 1616.1,545.9 1616.1,668.2 1641.7,668.2 1641.7,545.9 
			1680.4,545.9 		"/>
		<polygon class="st1" points="1815.2,545.9 1815.2,523.4 1720.9,523.4 1720.9,668.2 1815.2,668.2 1815.2,645.7 1746.6,645.7 
			1746.6,606.4 1805,606.4 1805,583.9 1746.6,583.9 1746.6,545.9 		"/>
	</g>
</g>
</svg>
